<mxfile host="app.diagrams.net" modified="2024-08-03T15:21:57.970Z" agent="Mozilla/5.0 (Windows NT 10.0; Win64; x64) AppleWebKit/537.36 (KHTML, like Gecko) Chrome/126.0.0.0 Safari/537.36" version="24.6.4" etag="s8EEb81zixaDOiCHRGUt" type="github">
  <diagram name="第 1 页" id="Cw6Dc4R8qNXpniXz0ZXc">
    <mxGraphModel>
      <root>
        <mxCell id="0" />
        <mxCell id="1" parent="0" />
      </root>
    </mxGraphModel>
  </diagram>
</mxfile>
